<svg width="180" height="50" viewBox="0 0 180 50" fill="none" xmlns="http://www.w3.org/2000/svg">
  <path d="M10 10H40V40H10V10Z" fill="url(#paint0_linear)" />
  <path d="M15 15H35V35H15V15Z" fill="white" />
  <path d="M20 20H30V30H20V20Z" fill="url(#paint1_linear)" />
  <path d="M50 15H170V35H50V15Z" fill="none" />
  <path d="M55 25L60 15H65L70 25L75 15H80L72 35H67L65 30L63 35H58L50 15H55L55 25Z" fill="url(#paint2_linear)" />
  <path d="M85 15H90V30H105V35H85V15Z" fill="url(#paint3_linear)" />
  <path d="M110 15H115V35H110V15Z" fill="url(#paint4_linear)" />
  <path d="M120 15H140V20H125V22H135V27H125V30H140V35H120V15Z" fill="url(#paint5_linear)" />
  <defs>
    <linearGradient id="paint0_linear" x1="10" y1="10" x2="40" y2="40" gradientUnits="userSpaceOnUse">
      <stop stop-color="#4ade80" />
      <stop offset="1" stop-color="#3b82f6" />
    </linearGradient>
    <linearGradient id="paint1_linear" x1="20" y1="20" x2="30" y2="30" gradientUnits="userSpaceOnUse">
      <stop stop-color="#4ade80" />
      <stop offset="1" stop-color="#3b82f6" />
    </linearGradient>
    <linearGradient id="paint2_linear" x1="50" y1="15" x2="80" y2="35" gradientUnits="userSpaceOnUse">
      <stop stop-color="#4ade80" />
      <stop offset="1" stop-color="#3b82f6" />
    </linearGradient>
    <linearGradient id="paint3_linear" x1="85" y1="15" x2="105" y2="35" gradientUnits="userSpaceOnUse">
      <stop stop-color="#4ade80" />
      <stop offset="1" stop-color="#3b82f6" />
    </linearGradient>
    <linearGradient id="paint4_linear" x1="110" y1="15" x2="115" y2="35" gradientUnits="userSpaceOnUse">
      <stop stop-color="#4ade80" />
      <stop offset="1" stop-color="#3b82f6" />
    </linearGradient>
    <linearGradient id="paint5_linear" x1="120" y1="15" x2="140" y2="35" gradientUnits="userSpaceOnUse">
      <stop stop-color="#4ade80" />
      <stop offset="1" stop-color="#3b82f6" />
    </linearGradient>
  </defs>
</svg>
